<?xml version="1.0" encoding="UTF-8"?>
<svg width="251.79px" height="72px" version="1.1" xmlns="http://www.w3.org/2000/svg" xmlns:cc="http://creativecommons.org/ns#" xmlns:dc="http://purl.org/dc/elements/1.1/" xmlns:rdf="http://www.w3.org/1999/02/22-rdf-syntax-ns#">
 <metadata>
  <rdf:RDF>
   <cc:Work rdf:about="">
    <dc:format>image/svg+xml</dc:format>
    <dc:type rdf:resource="http://purl.org/dc/dcmitype/StillImage"/>
    <dc:title/>
   </cc:Work>
  </rdf:RDF>
 </metadata>
 <path d="m-0.0015-1e-4v72h251.79v-72h-251.79z"/>
 <path d="m240.49 51.68c-0.491 0.1385-0.9065 0.214-1.3219 0.214-1.473 0-2.1655-0.6295-2.1655-2.4424v-13.685c0-7.1887-5.7282-10.689-12.502-10.689-5.1743 0-7.9566 0.6295-13.484 2.8578l-1.2338 7.2517 7.1887 0.7679 1.0198-3.5502c1.473-0.768 2.9334-0.9065 4.8218-0.9065 5.0988 0 5.1744 3.8398 5.1744 7.0502v1.0449c-1.6115-0.214-3.4244-0.2769-5.1744-0.2769-7.1887 0-14.667 1.8129-14.667 9.5681 0 6.5592 5.1617 9.0142 9.7066 9.0142 5.0988 0 8.3092-3.0719 10.122-6.2822 0.4154 3.8398 2.7193 6.2822 6.9117 6.2822 1.9514 0 3.9783-0.554 5.6527-1.473l-0.0503-4.7463zm-19.338-0.2014c-2.7194 0-3.7014-1.6115-3.7014-3.6384 0-3.4244 2.7949-4.3309 6.0053-4.3309 1.4604 0 3.0719 0.214 4.5448 0.4155-0.214 5.2499-3.6384 7.5538-6.8487 7.5538zm-12.099-42.326-13.622 48.055h-8.8757l13.622-48.055h8.8757zm-18.293 0-13.622 48.055h-8.8631l13.622-48.055h8.8631zm-37.819 16.555h9.4296v11.306h-9.4296v-11.306zm0 20.181h9.4296v11.318h-9.4296v-11.318zm-13.723-0.4155 7.1258 0.6924-1.9514 11.041h-27.521l-0.9064-4.7463 17.323-19.904h-9.8451l-1.3974 4.8848-6.4963-0.705 1.1205-11.041h27.659l0.7051 4.7463-17.474 19.917h10.198l1.4604-4.8848zm-45.134-20.395c-11.318 0-16.908 7.6167-16.908 16.832 0 10.059 6.7102 15.989 16.417 15.989 10.059 0 17.323-6.3578 17.323-16.417 0-8.8002-5.5268-16.404-16.832-16.404zm-0.2141 25.91c-4.8847 0-7.4027-4.1924-7.4027-9.6437 0-5.9423 2.8579-9.3541 7.4783-9.3541 4.2553 0 7.6797 2.8578 7.6797 9.2156 0 6.0053-3.0719 9.7822-7.7553 9.7822zm-24.802-0.6295h4.1924v6.8488h-13.207v-17.739c0-5.4513-1.8129-7.5412-5.3757-7.5412-4.3309 0-6.0808 3.0719-6.0808 7.4783v10.953h4.1923v6.8488h-13.194v-17.739c0-5.4513-1.8129-7.5412-5.3758-7.5412-4.3309 0-6.0808 3.0719-6.0808 7.4783v10.953h6.0052v6.8488h-19.199v-6.8488h4.1924v-17.814h-4.1924v-6.8487h13.194v4.7463c1.8884-3.3489 5.1743-5.3758 9.5681-5.3758 4.5449 0 8.7246 2.1654 10.273 6.7732 1.7499-4.1923 5.3128-6.7732 10.273-6.7732 5.6528 0 10.827 3.4244 10.827 10.89v14.403h-0.0126z" fill="#fff"/>
</svg>
